<svg width="145" height="105" viewBox="0 0 145 105" fill="none" xmlns="http://www.w3.org/2000/svg">
<path d="M9.32445 103.212C9.32445 103.212 1.66138 100.419 1.66138 94.6837C1.66138 93.1757 2.46861 91.7296 3.90572 90.6633C5.34282 89.5971 7.29208 88.998 9.32445 88.998C11.3568 88.998 13.3058 89.5971 14.743 90.6633C16.1801 91.7296 16.9875 93.1757 16.9875 94.6837C16.9875 100.419 9.32445 103.212 9.32445 103.212Z" stroke="#44475C" stroke-width="2" stroke-linejoin="round"/>
<path d="M9.32409 96.815C10.9112 96.815 12.1977 95.8604 12.1977 94.6829C12.1977 93.5054 10.9112 92.5508 9.32409 92.5508C7.73702 92.5508 6.45044 93.5054 6.45044 94.6829C6.45044 95.8604 7.73702 96.815 9.32409 96.815Z" stroke="#44475C" stroke-width="2" stroke-miterlimit="10"/>
</svg>
