<svg width="19" height="16" viewBox="0 0 19 16" fill="none" xmlns="http://www.w3.org/2000/svg">
<path d="M8.01467 9.19936C8.61957 9.74054 9.27032 10.2424 9.9616 10.7007C10.2667 10.902 10.6364 11.0178 11.0205 11.0326C11.4047 11.0474 11.7848 10.9603 12.1095 10.7833L12.5721 10.5356C12.9061 10.3392 13.3039 10.2386 13.7084 10.248C14.1129 10.2574 14.5035 10.3765 14.8247 10.5881L16.9899 12.0895C17.0945 12.1601 17.1806 12.249 17.2425 12.3503C17.3043 12.4515 17.3406 12.5629 17.3488 12.677C17.3571 12.7912 17.337 12.9055 17.2902 13.0126C17.2434 13.1196 17.1709 13.217 17.0773 13.2982V13.2982C16.2433 14.0171 15.1689 14.494 14.0042 14.6622C12.8396 14.8305 11.6431 14.6817 10.5817 14.2365C8.78095 13.4742 7.14038 12.4594 5.72734 11.2338C4.30155 10.0219 3.12122 8.61366 2.23505 7.06736C1.71817 6.15382 1.54463 5.12466 1.73862 4.12253C1.93261 3.12041 2.48449 2.19503 3.31765 1.47471V1.47471C3.41151 1.39375 3.52409 1.33074 3.64825 1.28987C3.77241 1.24901 3.90537 1.23121 4.03811 1.23759C4.17084 1.24397 4.30049 1.27439 4.41858 1.32689C4.53667 1.3794 4.6404 1.45279 4.72318 1.54224L6.46932 3.41147C6.71077 3.67442 6.85222 3.995 6.87409 4.3295C6.89597 4.66399 6.79732 4.99618 6.59167 5.28074L6.25105 5.73866C6.04631 6.01784 5.94515 6.3439 5.96074 6.67368C5.97633 7.00346 6.10803 7.32137 6.33844 7.58534C6.86033 8.17883 7.42914 8.74072 8.04089 9.26694L8.01467 9.19936Z" stroke="#44475C" stroke-width="2" stroke-linejoin="round"/>
</svg>
