<svg width="123" height="234" viewBox="0 0 123 234" fill="none" xmlns="http://www.w3.org/2000/svg">
<path d="M8.01467 227.199C8.61957 227.741 9.27032 228.242 9.9616 228.701C10.2667 228.902 10.6364 229.018 11.0205 229.033C11.4047 229.047 11.7848 228.96 12.1095 228.783L12.5721 228.536C12.9061 228.339 13.3039 228.239 13.7084 228.248C14.1129 228.257 14.5035 228.376 14.8247 228.588L16.9899 230.09C17.0945 230.16 17.1806 230.249 17.2425 230.35C17.3043 230.452 17.3406 230.563 17.3488 230.677C17.3571 230.791 17.337 230.906 17.2902 231.013C17.2434 231.12 17.1709 231.217 17.0773 231.298V231.298C16.2433 232.017 15.1689 232.494 14.0042 232.662C12.8396 232.83 11.6431 232.682 10.5817 232.237C8.78095 231.474 7.14038 230.459 5.72734 229.234C4.30155 228.022 3.12122 226.614 2.23505 225.067C1.71817 224.154 1.54463 223.125 1.73862 222.123C1.93261 221.12 2.48449 220.195 3.31765 219.475V219.475C3.41151 219.394 3.52409 219.331 3.64825 219.29C3.77241 219.249 3.90537 219.231 4.03811 219.238C4.17084 219.244 4.30049 219.274 4.41858 219.327C4.53667 219.379 4.6404 219.453 4.72318 219.542L6.46932 221.411C6.71077 221.674 6.85222 221.995 6.87409 222.329C6.89597 222.664 6.79732 222.996 6.59167 223.281L6.25105 223.739C6.04631 224.018 5.94515 224.344 5.96074 224.674C5.97633 225.003 6.10803 225.321 6.33844 225.585C6.86033 226.179 7.42914 226.741 8.04089 227.267L8.01467 227.199Z" stroke="#44475C" stroke-width="2" stroke-linejoin="round"/>
</svg>
