<svg width="113" height="154" viewBox="0 0 113 154" fill="none" xmlns="http://www.w3.org/2000/svg">
<path fill-rule="evenodd" clip-rule="evenodd" d="M112.014 145.463C112.014 147.728 111.363 149.899 110.204 151.5C109.045 153.101 107.473 154 105.834 154H6.95071C5.31162 154 3.73966 153.101 2.58065 151.5C1.42163 149.899 0.770508 147.728 0.770508 145.463V8.87653C0.770508 6.61246 1.42163 4.44112 2.58065 2.84018C3.73966 1.23924 5.31162 0.339844 6.95071 0.339844C8.5898 0.339844 10.1618 1.23924 11.3208 2.84018C12.4798 4.44112 13.1309 6.61246 13.1309 8.87653V136.927H105.834C107.473 136.927 109.045 137.826 110.204 139.427C111.363 141.028 112.014 143.199 112.014 145.463Z" fill="#373867"/>
<path fill-rule="evenodd" clip-rule="evenodd" d="M110.963 13.5778L104.536 26.895C105.401 29.2426 105.852 31.8463 105.834 34.4927C105.824 38.8341 104.617 43.0071 102.458 46.1629C100.3 49.3187 97.3522 51.2202 94.2149 51.4807L85.2536 76.2371C86.3124 78.4565 86.9814 80.9868 87.2074 83.6263C87.4333 86.2659 87.21 88.9419 86.5552 91.4413C85.9004 93.9406 84.8322 96.1943 83.4356 98.0228C82.0391 99.8513 80.3527 101.204 78.5108 101.974C76.669 102.743 74.7225 102.908 72.8264 102.455C70.9303 102.002 69.1369 100.944 67.589 99.3649C66.0412 97.7858 64.7816 95.7293 63.9107 93.3591C63.0397 90.989 62.5814 88.3707 62.5722 85.7128V85.4567L50.0264 75.0419C48.9325 75.8956 47.7398 76.5103 46.5037 76.8346L37.5424 114.055C37.1278 115.75 36.3379 117.223 35.2844 118.265C34.2308 119.306 32.9669 119.864 31.6712 119.86C31.0014 119.836 30.3366 119.693 29.6936 119.433C28.1449 118.692 26.8689 117.14 26.1406 115.113C25.4123 113.085 25.29 110.742 25.8001 108.591L34.7613 71.3712C33.438 69.2985 32.4987 66.8131 32.0241 64.1285C31.5495 61.4439 31.5537 58.6402 32.0365 55.9584C32.5193 53.2765 33.4661 50.7966 34.7957 48.7316C36.1253 46.6667 37.7979 45.0784 39.6699 44.1032C41.5419 43.128 43.5572 42.7951 45.5429 43.1329C47.5286 43.4708 49.4252 44.4695 51.0698 46.043C52.7145 47.6166 54.058 49.7181 54.9851 52.1671C55.9121 54.616 56.3949 57.3392 56.392 60.1027V60.3588L68.9378 70.7736C70.5447 69.5187 72.3493 68.8102 74.191 68.7248L83.1523 43.9684C81.924 41.3892 81.223 38.3994 81.1235 35.3152C81.0239 32.2309 81.5296 29.1669 82.587 26.4469C83.6444 23.727 85.2142 21.4522 87.1304 19.8631C89.0467 18.274 91.2382 17.4297 93.4732 17.4193C93.7425 17.4052 94.0121 17.4338 94.2767 17.5047L100.704 4.18747C101.67 2.531 103.049 1.43231 104.571 1.10658C106.092 0.780846 107.647 1.25153 108.931 2.42646C110.214 3.60138 111.134 5.3959 111.51 7.45856C111.886 9.52122 111.691 11.7034 110.963 13.5778Z" fill="#373867"/>
</svg>
