<svg width="40" height="55" viewBox="0 0 40 55" fill="none" xmlns="http://www.w3.org/2000/svg">
<path d="M5.52459 41.7423H13.6669C13.9478 41.7423 14.2245 41.8452 14.4758 42.0427C14.727 42.2403 14.9456 42.5269 15.1141 42.8803L18.5523 51.9573C18.7208 52.3107 18.9393 52.5975 19.1906 52.7951C19.4418 52.9926 19.719 53.0955 19.9999 53.0955C20.2808 53.0955 20.5575 52.9926 20.8087 52.7951C21.06 52.5975 21.2785 52.3107 21.4471 51.9573L24.8852 42.8803C25.0537 42.5269 25.2723 42.2403 25.5235 42.0427C25.7748 41.8452 26.0519 41.7423 26.3328 41.7423H34.4752C35.4349 41.7423 36.3551 41.1426 37.0338 40.0754C37.7125 39.0081 38.094 37.5607 38.094 36.0514V7.59711C38.094 6.0878 37.7125 4.64022 37.0338 3.57297C36.3551 2.50573 35.4349 1.90625 34.4752 1.90625H5.52459C4.56481 1.90625 3.64418 2.50573 2.96552 3.57297C2.28686 4.64022 1.90576 6.0878 1.90576 7.59711V36.0514C1.90576 37.5607 2.28686 39.0081 2.96552 40.0754C3.64418 41.1426 4.56481 41.7423 5.52459 41.7423Z" stroke="#44475C" stroke-width="2" stroke-linejoin="round"/>
<path d="M11.8574 16.1055H28.1421" stroke="#44475C" stroke-width="2" stroke-miterlimit="10"/>
<path d="M11.8574 27.4863H28.1421" stroke="#44475C" stroke-width="2" stroke-miterlimit="10"/>
</svg>
