<svg width="118" height="154" viewBox="0 0 118 154" fill="none" xmlns="http://www.w3.org/2000/svg">
<path d="M59.1086 0.255859C49.8284 0.255859 42.3052 11.712 42.3052 25.8439C42.3052 39.9756 49.8284 51.4318 59.1086 51.4318C68.3889 51.4318 75.912 39.9756 75.912 25.8439C75.912 11.712 68.3889 0.255859 59.1086 0.255859Z" fill="#373867"/>
<path d="M96.955 13.0371C89.9881 13.0371 84.3398 21.6377 84.3398 32.2472C84.3398 42.8567 89.9881 51.4574 96.955 51.4574C103.922 51.4574 109.57 42.8567 109.57 32.2472C109.57 21.6377 103.922 13.0371 96.955 13.0371Z" fill="#373867"/>
<path d="M21.2636 13.0371C14.2964 13.0371 8.64844 21.6377 8.64844 32.2472C8.64844 42.8567 14.2964 51.4574 21.2636 51.4574C28.2308 51.4574 33.8788 42.8567 33.8788 32.2472C33.8788 21.6377 28.2308 13.0371 21.2636 13.0371Z" fill="#373867"/>
<path d="M33.8791 76.9896C33.9083 69.9548 37.6624 64.2656 42.289 64.2656H75.9294C80.5743 64.2656 84.3395 69.9995 84.3395 77.0725V115.497C84.3395 116.822 84.2958 118.134 84.2092 119.424C84.0267 122.166 83.6541 124.822 83.1133 127.363C79.83 142.775 70.324 153.917 59.1092 153.917C47.7875 153.917 38.2076 142.561 35.0132 126.922C34.276 123.313 33.8789 119.476 33.8789 115.497V77.0724C33.8789 77.0448 33.879 77.0172 33.8791 76.9896Z" fill="#373867"/>
<path d="M25.4686 77.0724C25.4686 72.4071 26.2877 68.0331 27.7188 64.2656H8.64839C4.00365 64.2656 0.238281 69.9995 0.238281 77.0724V109.093C0.238281 126.776 9.65163 141.11 21.2635 141.11C24.0483 141.11 26.7066 140.285 29.139 138.788C26.7923 131.801 25.4686 123.884 25.4686 115.497V77.0724Z" fill="#373867"/>
<path d="M92.7483 77.0725V115.497C92.7483 123.884 91.4245 131.801 89.0781 138.788C91.5103 140.285 94.1688 141.11 96.9534 141.11C108.565 141.11 117.979 126.776 117.979 109.093V77.0724C117.979 69.9995 114.213 64.2656 109.569 64.2656H90.4978C91.9292 68.0331 92.7483 72.4071 92.7483 77.0725Z" fill="#373867"/>
</svg>
