<svg width="110" height="154" viewBox="0 0 110 154" fill="none" xmlns="http://www.w3.org/2000/svg">
<path d="M15.3864 110.077H29.8084C33.5065 110.077 36.5544 114.316 36.971 119.777L37.0195 121.058V143.019C37.0195 148.651 34.2357 153.292 30.6494 153.926L29.8084 154H15.3864C11.6884 154 8.64044 149.761 8.22389 144.3L8.17538 143.019V121.058C8.17538 115.426 10.9592 110.785 14.5454 110.151L15.3864 110.077H29.8084H15.3864ZM101.919 121.058C105.901 121.058 109.13 125.974 109.13 132.039C109.13 138.103 105.901 143.019 101.919 143.019H58.6525C54.67 143.019 51.4415 138.103 51.4415 132.039C51.4415 125.974 54.67 121.058 58.6525 121.058H101.919ZM29.8084 121.058H15.3864V143.019H29.8084V121.058ZM29.8084 55.1729C33.7909 55.1729 37.0195 60.0892 37.0195 66.1537V88.1153C37.0195 94.1798 33.7909 99.0961 29.8084 99.0961H15.3864C11.4039 99.0961 8.17538 94.1798 8.17538 88.1153V66.1537C8.17538 60.0892 11.4039 55.1729 15.3864 55.1729H29.8084ZM101.919 66.1537C105.901 66.1537 109.13 71.07 109.13 77.1345C109.13 82.7658 106.346 87.4071 102.76 88.0414L101.919 88.1153H58.6525C54.67 88.1153 51.4415 83.199 51.4415 77.1345C51.4415 71.5032 54.2253 66.8619 57.8116 66.2275L58.6525 66.1537H101.919ZM29.8084 66.1537H15.3864V88.1153H29.8084V66.1537ZM35.3945 2.752C37.3146 5.67579 37.4891 10.2512 35.9182 13.4752L35.3945 14.3989L17.4079 41.7887C16.3936 43.3332 15.018 44.2008 13.5836 44.2008C12.4362 44.2008 11.3263 43.6456 10.4089 42.6326L9.75942 41.7887L2.5484 30.8079C0.43634 27.5917 0.43634 22.3772 2.5484 19.161C4.46845 16.2372 7.47303 15.9714 9.59026 18.3636L10.1968 19.161L13.5836 24.3183L27.7461 2.752C29.8581 -0.464203 33.2824 -0.464214 35.3945 2.752ZM101.919 11.2496C105.901 11.2496 109.13 16.1659 109.13 22.2304C109.13 27.8617 106.346 32.503 102.76 33.1374L101.919 33.2112H58.6525C54.67 33.2112 51.4415 28.2949 51.4415 22.2304C51.4415 16.5991 54.2253 11.9578 57.8116 11.3235L58.6525 11.2496H101.919Z" fill="#373867"/>
</svg>
