<svg width="34" height="27" viewBox="0 0 34 27" fill="none" xmlns="http://www.w3.org/2000/svg">
<g clip-path="url(#clip0_1275_5696)">
<rect width="256" height="256" rx="40" fill="#3B5998"/>
<path d="M24.4179 6.39063H8.90136C8.37006 6.39088 7.93935 6.73768 7.93945 7.16543V19.6528C7.93977 20.0804 8.37069 20.427 8.90221 20.4269H17.2562V14.9988H14.9909V12.8742H17.2562V11.3106C17.2562 9.49739 18.6317 8.51046 20.6415 8.51046C21.6042 8.51046 22.4314 8.56821 22.6725 8.59399V10.4891H21.2866C20.1931 10.4891 19.9814 10.9073 19.9814 11.521V12.8742H22.5959L22.2553 14.9988H19.9814V20.4269H24.4179C24.9496 20.427 25.3806 20.0803 25.3807 19.6525C25.3807 19.6524 25.3807 19.6523 25.3807 19.6521V7.16475C25.3805 6.73716 24.9495 6.39054 24.4179 6.39063Z" fill="#9ABBFF"/>
<path fill-rule="evenodd" clip-rule="evenodd" d="M8.90136 6.39063H24.4179C24.9495 6.39054 25.3805 6.73716 25.3807 7.16475V19.6521V19.6525C25.3806 20.0803 24.9496 20.427 24.4179 20.4269H19.9814V14.9988H22.2553L22.5959 12.8742H19.9814V11.521C19.9814 10.9073 20.1931 10.4891 21.2866 10.4891H22.6725V8.59399C22.4314 8.56821 21.6042 8.51046 20.6415 8.51046C18.6317 8.51046 17.2562 9.49739 17.2562 11.3106V12.8742H14.9909V14.9988H17.2562V20.4269H8.90221C8.37069 20.427 7.93977 20.0804 7.93945 19.6528V7.16543C7.93935 6.73768 8.37006 6.39088 8.90136 6.39063Z" fill="#BAD0FF"/>
<path fill-rule="evenodd" clip-rule="evenodd" d="M8.96191 6H24.4785C25.01 5.99991 25.441 6.34654 25.4413 6.77412V19.2618C25.4412 19.6897 25.0101 20.0364 24.4785 20.0363H20.042V14.6082H22.3158L22.6564 12.4836H20.042V11.1304C20.042 10.5167 20.2537 10.0985 21.3472 10.0985H22.7331V8.20337C22.492 8.17758 21.6647 8.11984 20.7021 8.11984C18.6922 8.11984 17.3168 9.10677 17.3168 10.92V12.4836H15.6976C15.0652 11.8873 14.3971 11.2603 13.7369 10.6408C11.2054 8.26534 8.79142 6.00008 8.96191 6ZM15.0514 12.7143V12.4836H15.6976C19.2791 15.8604 21.7132 18.2516 15.0514 12.7143ZM15.0514 12.7143V14.6082H17.3168V20.0363H8.96276C8.43124 20.0364 8.00032 19.6898 8 19.2622V6.77481C11.0377 9.35381 13.3435 11.2946 15.0514 12.7143Z" fill="#EAF1FF"/>
</g>
<defs>
<clipPath id="clip0_1275_5696">
<rect width="33.3206" height="26.8156" fill="white"/>
</clipPath>
</defs>
</svg>
