<svg width="32" height="40" viewBox="0 0 32 40" fill="none" xmlns="http://www.w3.org/2000/svg">
<path fill-rule="evenodd" clip-rule="evenodd" d="M14.8108 11.6717C11.9837 11.6717 9.69181 14.5764 9.69181 18.1596C9.69181 21.7426 11.9837 24.6474 14.8108 24.6474C17.6379 24.6474 19.9298 21.7426 19.9298 18.1596C19.9298 14.5764 17.6379 11.6717 14.8108 11.6717ZM7.13232 18.1596C7.13232 12.7848 10.5701 8.42773 14.8108 8.42773C19.0515 8.42773 22.4893 12.7848 22.4893 18.1596C22.4893 20.2613 21.9635 22.2075 21.0696 23.7983L25.9537 29.9884C26.4534 30.6218 26.4534 31.6488 25.9537 32.2822C25.4539 32.9156 24.6436 32.9156 24.1438 32.2822L19.2598 26.0921C18.0046 27.2251 16.4691 27.8914 14.8108 27.8914C10.5701 27.8914 7.13232 23.5343 7.13232 18.1596Z" fill="#373867"/>
</svg>
