<svg width="34" height="28" viewBox="0 0 34 28" fill="none" xmlns="http://www.w3.org/2000/svg">
<g clip-path="url(#clip0_1275_5666)">
<rect x="0.679199" y="0.185547" width="256" height="256" rx="40" fill="#0077B7"/>
<path fill-rule="evenodd" clip-rule="evenodd" d="M10.7182 6.88867C9.44869 6.88867 8.61865 7.55956 8.61865 8.44135C8.61865 9.30366 9.42396 9.99368 10.6695 9.99368H10.6936C11.9879 9.99368 12.7935 9.30366 12.7935 8.44135C12.7693 7.55956 11.9879 6.88867 10.7182 6.88867ZM8.83799 11.2206H12.5493V20.2065H8.83799V11.2206ZM18.3143 12.5237C18.3143 12.5237 19.6568 11.0097 21.659 11.0097C24.1006 11.0097 25.9316 12.294 25.9316 15.0541V20.2065H22.2206V15.3993C22.2206 14.1913 21.6835 13.3672 20.3405 13.3672C19.3152 13.3672 18.7046 13.923 18.4363 14.4594C18.3383 14.6515 18.3141 14.9198 18.3141 15.1884V20.2065H14.6028V11.2206H18.3143V12.5237Z" fill="#7AD1FF"/>
<path fill-rule="evenodd" clip-rule="evenodd" d="M8.61865 8.44135C8.61865 7.55956 9.44869 6.88867 10.7182 6.88867C11.9879 6.88867 12.7693 7.55956 12.7935 8.44135C12.7935 9.30366 11.9879 9.99368 10.6936 9.99368H10.6695C9.42396 9.99368 8.61865 9.30366 8.61865 8.44135ZM12.5493 11.2206H8.83799V20.2065H12.5493V11.2206ZM21.659 11.0097C19.6568 11.0097 18.3143 12.5237 18.3143 12.5237V11.2206H14.6028V20.2065H18.3141V15.1884C18.3141 14.9198 18.3383 14.6515 18.4363 14.4594C18.7046 13.923 19.3152 13.3672 20.3405 13.3672C21.6835 13.3672 22.2206 14.1913 22.2206 15.3993V20.2065H25.9316V15.0541C25.9316 12.294 24.1006 11.0097 21.659 11.0097Z" fill="#B0E4FF"/>
<path fill-rule="evenodd" clip-rule="evenodd" d="M8.61865 8.44135C8.61865 7.55956 9.44869 6.88867 10.7182 6.88867C11.9879 6.88867 12.7693 7.55956 12.7935 8.44135C12.7935 9.30366 11.9879 9.99368 10.6936 9.99368H10.6695C9.42396 9.99368 8.61865 9.30366 8.61865 8.44135ZM12.5493 11.2206H8.83799V20.2065H12.5493V11.2206ZM21.659 11.0097C19.6568 11.0097 18.3143 12.5237 18.3143 12.5237V11.2206H14.6028V20.2065H18.3141V15.1884C18.3141 14.9198 18.3383 14.6515 18.4363 14.4594C18.7046 13.923 19.3152 13.3672 20.3405 13.3672C21.6835 13.3672 22.2206 14.1913 22.2206 15.3993V20.2065H25.9316V15.0541C25.9316 12.294 24.1006 11.0097 21.659 11.0097Z" fill="#F0FAFF"/>
</g>
<defs>
<clipPath id="clip0_1275_5666">
<rect width="33.3206" height="26.8156" fill="white" transform="translate(0.679199 0.185547)"/>
</clipPath>
</defs>
</svg>
