<svg width="139" height="28" viewBox="0 0 139 28" fill="none" xmlns="http://www.w3.org/2000/svg">
<g clip-path="url(#clip0_1275_5665)">
<rect x="105.679" y="0.185547" width="256" height="256" rx="40" fill="#0077B7"/>
<path fill-rule="evenodd" clip-rule="evenodd" d="M115.718 6.88867C114.449 6.88867 113.619 7.55956 113.619 8.44135C113.619 9.30366 114.424 9.99368 115.669 9.99368H115.694C116.988 9.99368 117.793 9.30366 117.793 8.44135C117.769 7.55956 116.988 6.88867 115.718 6.88867ZM113.838 11.2206H117.549V20.2065H113.838V11.2206ZM123.314 12.5237C123.314 12.5237 124.657 11.0097 126.659 11.0097C129.101 11.0097 130.932 12.294 130.932 15.0541V20.2065H127.221V15.3993C127.221 14.1913 126.683 13.3672 125.341 13.3672C124.315 13.3672 123.705 13.923 123.436 14.4594C123.338 14.6515 123.314 14.9198 123.314 15.1884V20.2065H119.603V11.2206H123.314V12.5237Z" fill="#7AD1FF"/>
<path fill-rule="evenodd" clip-rule="evenodd" d="M113.619 8.44135C113.619 7.55956 114.449 6.88867 115.718 6.88867C116.988 6.88867 117.769 7.55956 117.793 8.44135C117.793 9.30366 116.988 9.99368 115.694 9.99368H115.669C114.424 9.99368 113.619 9.30366 113.619 8.44135ZM117.549 11.2206H113.838V20.2065H117.549V11.2206ZM126.659 11.0097C124.657 11.0097 123.314 12.5237 123.314 12.5237V11.2206H119.603V20.2065H123.314V15.1884C123.314 14.9198 123.338 14.6515 123.436 14.4594C123.705 13.923 124.315 13.3672 125.341 13.3672C126.683 13.3672 127.221 14.1913 127.221 15.3993V20.2065H130.932V15.0541C130.932 12.294 129.101 11.0097 126.659 11.0097Z" fill="#B0E4FF"/>
<path fill-rule="evenodd" clip-rule="evenodd" d="M113.619 8.44135C113.619 7.55956 114.449 6.88867 115.718 6.88867C116.988 6.88867 117.769 7.55956 117.793 8.44135C117.793 9.30366 116.988 9.99368 115.694 9.99368H115.669C114.424 9.99368 113.619 9.30366 113.619 8.44135ZM117.549 11.2206H113.838V20.2065H117.549V11.2206ZM126.659 11.0097C124.657 11.0097 123.314 12.5237 123.314 12.5237V11.2206H119.603V20.2065H123.314V15.1884C123.314 14.9198 123.338 14.6515 123.436 14.4594C123.705 13.923 124.315 13.3672 125.341 13.3672C126.683 13.3672 127.221 14.1913 127.221 15.3993V20.2065H130.932V15.0541C130.932 12.294 129.101 11.0097 126.659 11.0097Z" fill="#F0FAFF"/>
</g>
<g clip-path="url(#clip1_1275_5665)">
<rect x="50.145" y="0.185547" width="256" height="256" rx="40" fill="#00A2F5"/>
<path d="M63.3766 19.669C70.3514 19.669 74.1657 15.035 74.1657 11.0167C74.1657 10.885 74.1623 10.754 74.155 10.6236C74.8953 10.1943 75.5388 9.65863 76.0465 9.04887C75.3671 9.29116 74.6358 9.45405 73.8689 9.52774C74.6517 9.15112 75.2528 8.55559 75.5363 7.84567C74.8036 8.19401 73.9922 8.44709 73.1284 8.58378C72.4365 7.99269 71.4512 7.62305 70.3604 7.62305C68.2664 7.62305 66.5682 8.98488 66.5682 10.6636C66.5682 10.9024 66.6015 11.1344 66.6665 11.357C63.5149 11.2298 60.7202 10.0198 58.8501 8.17978C58.5246 8.6291 58.3367 9.15121 58.3367 9.7083C58.3367 10.7632 59.0062 11.6948 60.0241 12.2395C59.402 12.2242 58.8177 12.0872 58.3068 11.8593C58.3062 11.8721 58.3062 11.8845 58.3062 11.8981C58.3062 13.3709 59.6133 14.6005 61.3486 14.8792C61.0299 14.9487 60.6945 14.9861 60.3486 14.9861C60.1047 14.9861 59.8669 14.9669 59.6359 14.9313C60.1186 16.1396 61.5186 17.0188 63.1783 17.0435C61.8804 17.8593 60.2455 18.3452 58.4685 18.3452C58.1629 18.3452 57.8608 18.3311 57.564 18.303C59.2422 19.1657 61.235 19.6691 63.3767 19.6691" fill="#5CC8FF"/>
<path fill-rule="evenodd" clip-rule="evenodd" d="M74.1657 11.0167C74.1657 15.035 70.3514 19.669 63.3766 19.669L63.3767 19.6691C61.235 19.6691 59.2422 19.1657 57.564 18.303C57.8608 18.3311 58.1629 18.3452 58.4685 18.3452C60.2455 18.3452 61.8804 17.8593 63.1783 17.0435C61.5186 17.0188 60.1186 16.1396 59.6359 14.9313C59.8669 14.9669 60.1047 14.9861 60.3486 14.9861C60.6945 14.9861 61.0299 14.9487 61.3486 14.8792C59.6133 14.6005 58.3062 13.3709 58.3062 11.8981C58.3062 11.8845 58.3062 11.8721 58.3068 11.8593C58.8177 12.0872 59.402 12.2242 60.0241 12.2395C59.0062 11.6948 58.3367 10.7632 58.3367 9.7083C58.3367 9.15121 58.5246 8.6291 58.8501 8.17978C60.7202 10.0198 63.5149 11.2298 66.6665 11.357C66.6015 11.1344 66.5682 10.9024 66.5682 10.6636C66.5682 8.98488 68.2664 7.62305 70.3604 7.62305C71.4512 7.62305 72.4365 7.99269 73.1284 8.58378C73.9922 8.44709 74.8036 8.19401 75.5363 7.84567C75.2528 8.55559 74.6517 9.15112 73.8689 9.52774C74.6358 9.45405 75.3671 9.29116 76.0465 9.04887C75.5388 9.65863 74.8953 10.1943 74.155 10.6236C74.1623 10.754 74.1657 10.885 74.1657 11.0167Z" fill="#88D7FF"/>
<path fill-rule="evenodd" clip-rule="evenodd" d="M74.1657 11.0167C74.1657 15.035 70.3514 19.669 63.3766 19.669L63.3767 19.6691C61.235 19.6691 59.2422 19.1657 57.564 18.303C57.8608 18.3311 58.1629 18.3452 58.4685 18.3452C60.2455 18.3452 61.8804 17.8593 63.1783 17.0435C61.5186 17.0188 60.1186 16.1396 59.6359 14.9313C59.8669 14.9669 60.1047 14.9861 60.3486 14.9861C60.6945 14.9861 61.0299 14.9487 61.3486 14.8792C59.6133 14.6005 58.3062 13.3709 58.3062 11.8981C58.3062 11.8845 58.3062 11.8721 58.3068 11.8593C58.8177 12.0872 59.402 12.2242 60.0241 12.2395C59.0062 11.6948 58.3367 10.7632 58.3367 9.7083C58.3367 9.15121 58.5246 8.6291 58.8501 8.17978C60.7202 10.0198 63.5149 11.2298 66.6665 11.357C66.6015 11.1344 66.5682 10.9024 66.5682 10.6636C66.5682 8.98488 68.2664 7.62305 70.3604 7.62305C71.4512 7.62305 72.4365 7.99269 73.1284 8.58378C73.9922 8.44709 74.8036 8.19401 75.5363 7.84567C75.2528 8.55559 74.6517 9.15112 73.8689 9.52774C74.6358 9.45405 75.3671 9.29116 76.0465 9.04887C75.5388 9.65863 74.8953 10.1943 74.155 10.6236C74.1623 10.754 74.1657 10.885 74.1657 11.0167Z" fill="#B4E5FF"/>
</g>
<g clip-path="url(#clip2_1275_5665)">
<rect width="256" height="256" rx="40" fill="#3B5998"/>
<path d="M24.4179 6.39063H8.90136C8.37006 6.39088 7.93935 6.73768 7.93945 7.16543V19.6528C7.93977 20.0804 8.37069 20.427 8.90221 20.4269H17.2562V14.9988H14.9909V12.8742H17.2562V11.3106C17.2562 9.49739 18.6317 8.51046 20.6415 8.51046C21.6042 8.51046 22.4314 8.56821 22.6725 8.59399V10.4891H21.2866C20.1931 10.4891 19.9814 10.9073 19.9814 11.521V12.8742H22.5959L22.2553 14.9988H19.9814V20.4269H24.4179C24.9496 20.427 25.3806 20.0803 25.3807 19.6525C25.3807 19.6524 25.3807 19.6523 25.3807 19.6521V7.16475C25.3805 6.73716 24.9495 6.39054 24.4179 6.39063Z" fill="#9ABBFF"/>
<path fill-rule="evenodd" clip-rule="evenodd" d="M8.90136 6.39063H24.4179C24.9495 6.39054 25.3805 6.73716 25.3807 7.16475V19.6521V19.6525C25.3806 20.0803 24.9496 20.427 24.4179 20.4269H19.9814V14.9988H22.2553L22.5959 12.8742H19.9814V11.521C19.9814 10.9073 20.1931 10.4891 21.2866 10.4891H22.6725V8.59399C22.4314 8.56821 21.6042 8.51046 20.6415 8.51046C18.6317 8.51046 17.2562 9.49739 17.2562 11.3106V12.8742H14.9909V14.9988H17.2562V20.4269H8.90221C8.37069 20.427 7.93977 20.0804 7.93945 19.6528V7.16543C7.93935 6.73768 8.37006 6.39088 8.90136 6.39063Z" fill="#BAD0FF"/>
<path fill-rule="evenodd" clip-rule="evenodd" d="M8.96191 6H24.4785C25.01 5.99991 25.441 6.34654 25.4413 6.77412V19.2618C25.4412 19.6897 25.0101 20.0364 24.4785 20.0363H20.042V14.6082H22.3158L22.6564 12.4836H20.042V11.1304C20.042 10.5167 20.2537 10.0985 21.3472 10.0985H22.7331V8.20337C22.492 8.17758 21.6647 8.11984 20.7021 8.11984C18.6922 8.11984 17.3168 9.10677 17.3168 10.92V12.4836H15.6976C15.0652 11.8873 14.3971 11.2603 13.7369 10.6408C11.2054 8.26534 8.79142 6.00008 8.96191 6ZM15.0514 12.7143V12.4836H15.6976C19.2791 15.8604 21.7132 18.2516 15.0514 12.7143ZM15.0514 12.7143V14.6082H17.3168V20.0363H8.96276C8.43124 20.0364 8.00032 19.6898 8 19.2622V6.77481C11.0377 9.35381 13.3435 11.2946 15.0514 12.7143Z" fill="#EAF1FF"/>
</g>
<defs>
<clipPath id="clip0_1275_5665">
<rect width="33.3206" height="26.8156" fill="white" transform="translate(105.679 0.185547)"/>
</clipPath>
<clipPath id="clip1_1275_5665">
<rect width="33.3206" height="26.8156" fill="white" transform="translate(50.145 0.185547)"/>
</clipPath>
<clipPath id="clip2_1275_5665">
<rect width="33.3206" height="26.8156" fill="white"/>
</clipPath>
</defs>
</svg>
