<svg width="34" height="28" viewBox="0 0 34 28" fill="none" xmlns="http://www.w3.org/2000/svg">
<g clip-path="url(#clip0_1275_5685)">
<rect x="0.14502" y="0.185547" width="256" height="256" rx="40" fill="#00A2F5"/>
<path d="M13.3766 19.669C20.3514 19.669 24.1657 15.035 24.1657 11.0167C24.1657 10.885 24.1623 10.754 24.155 10.6236C24.8953 10.1943 25.5388 9.65863 26.0465 9.04887C25.3671 9.29116 24.6358 9.45405 23.8689 9.52774C24.6517 9.15112 25.2528 8.55559 25.5363 7.84567C24.8036 8.19401 23.9922 8.44709 23.1284 8.58378C22.4365 7.99269 21.4512 7.62305 20.3604 7.62305C18.2664 7.62305 16.5682 8.98488 16.5682 10.6636C16.5682 10.9024 16.6015 11.1344 16.6665 11.357C13.5149 11.2298 10.7202 10.0198 8.85012 8.17978C8.52459 8.6291 8.33674 9.15121 8.33674 9.7083C8.33674 10.7632 9.00621 11.6948 10.0241 12.2395C9.40203 12.2242 8.81768 12.0872 8.30679 11.8593C8.30622 11.8721 8.30622 11.8845 8.30622 11.8981C8.30622 13.3709 9.61328 14.6005 11.3486 14.8792C11.0299 14.9487 10.6945 14.9861 10.3486 14.9861C10.1047 14.9861 9.86692 14.9669 9.63589 14.9313C10.1186 16.1396 11.5186 17.0188 13.1783 17.0435C11.8804 17.8593 10.2455 18.3452 8.46853 18.3452C8.1629 18.3452 7.86078 18.3311 7.56396 18.303C9.24221 19.1657 11.235 19.6691 13.3767 19.6691" fill="#5CC8FF"/>
<path fill-rule="evenodd" clip-rule="evenodd" d="M24.1657 11.0167C24.1657 15.035 20.3514 19.669 13.3766 19.669L13.3767 19.6691C11.235 19.6691 9.24221 19.1657 7.56396 18.303C7.86078 18.3311 8.1629 18.3452 8.46853 18.3452C10.2455 18.3452 11.8804 17.8593 13.1783 17.0435C11.5186 17.0188 10.1186 16.1396 9.63589 14.9313C9.86692 14.9669 10.1047 14.9861 10.3486 14.9861C10.6945 14.9861 11.0299 14.9487 11.3486 14.8792C9.61328 14.6005 8.30622 13.3709 8.30622 11.8981C8.30622 11.8845 8.30622 11.8721 8.30679 11.8593C8.81768 12.0872 9.40203 12.2242 10.0241 12.2395C9.00621 11.6948 8.33674 10.7632 8.33674 9.7083C8.33674 9.15121 8.52459 8.6291 8.85012 8.17978C10.7202 10.0198 13.5149 11.2298 16.6665 11.357C16.6015 11.1344 16.5682 10.9024 16.5682 10.6636C16.5682 8.98488 18.2664 7.62305 20.3604 7.62305C21.4512 7.62305 22.4365 7.99269 23.1284 8.58378C23.9922 8.44709 24.8036 8.19401 25.5363 7.84567C25.2528 8.55559 24.6517 9.15112 23.8689 9.52774C24.6358 9.45405 25.3671 9.29116 26.0465 9.04887C25.5388 9.65863 24.8953 10.1943 24.155 10.6236C24.1623 10.754 24.1657 10.885 24.1657 11.0167Z" fill="#88D7FF"/>
<path fill-rule="evenodd" clip-rule="evenodd" d="M24.1657 11.0167C24.1657 15.035 20.3514 19.669 13.3766 19.669L13.3767 19.6691C11.235 19.6691 9.24221 19.1657 7.56396 18.303C7.86078 18.3311 8.1629 18.3452 8.46853 18.3452C10.2455 18.3452 11.8804 17.8593 13.1783 17.0435C11.5186 17.0188 10.1186 16.1396 9.63589 14.9313C9.86692 14.9669 10.1047 14.9861 10.3486 14.9861C10.6945 14.9861 11.0299 14.9487 11.3486 14.8792C9.61328 14.6005 8.30622 13.3709 8.30622 11.8981C8.30622 11.8845 8.30622 11.8721 8.30679 11.8593C8.81768 12.0872 9.40203 12.2242 10.0241 12.2395C9.00621 11.6948 8.33674 10.7632 8.33674 9.7083C8.33674 9.15121 8.52459 8.6291 8.85012 8.17978C10.7202 10.0198 13.5149 11.2298 16.6665 11.357C16.6015 11.1344 16.5682 10.9024 16.5682 10.6636C16.5682 8.98488 18.2664 7.62305 20.3604 7.62305C21.4512 7.62305 22.4365 7.99269 23.1284 8.58378C23.9922 8.44709 24.8036 8.19401 25.5363 7.84567C25.2528 8.55559 24.6517 9.15112 23.8689 9.52774C24.6358 9.45405 25.3671 9.29116 26.0465 9.04887C25.5388 9.65863 24.8953 10.1943 24.155 10.6236C24.1623 10.754 24.1657 10.885 24.1657 11.0167Z" fill="#B4E5FF"/>
</g>
<defs>
<clipPath id="clip0_1275_5685">
<rect width="33.3206" height="26.8156" fill="white" transform="translate(0.14502 0.185547)"/>
</clipPath>
</defs>
</svg>
