<svg width="30" height="29" viewBox="0 0 30 29" fill="none" xmlns="http://www.w3.org/2000/svg">
<path fill-rule="evenodd" clip-rule="evenodd" d="M26.4172 28.8468C24.799 28.8468 23.4872 27.5989 23.4872 26.0594C23.4872 24.52 24.799 23.272 26.4172 23.272C28.0354 23.272 29.3473 24.52 29.3473 26.0594C29.3473 27.5989 28.0354 28.8468 26.4172 28.8468ZM26.4172 17.6972C24.799 17.6972 23.4872 16.4492 23.4872 14.9097C23.4872 13.3703 24.799 12.1223 26.4172 12.1223C28.0354 12.1223 29.3473 13.3703 29.3473 14.9097C29.3473 16.4492 28.0354 17.6972 26.4172 17.6972ZM26.4172 6.54749C24.799 6.54749 23.4872 5.29952 23.4872 3.76007C23.4872 2.22063 24.799 0.972656 26.4172 0.972656C28.0354 0.972656 29.3473 2.22063 29.3473 3.76007C29.3473 5.29952 28.0354 6.54749 26.4172 6.54749ZM14.6971 28.8468C13.0789 28.8468 11.767 27.5989 11.767 26.0594C11.767 24.52 13.0789 23.272 14.6971 23.272C16.3153 23.272 17.6271 24.52 17.6271 26.0594C17.6271 27.5989 16.3153 28.8468 14.6971 28.8468ZM14.6971 17.6972C13.0789 17.6972 11.767 16.4492 11.767 14.9097C11.767 13.3703 13.0789 12.1223 14.6971 12.1223C16.3153 12.1223 17.6271 13.3703 17.6271 14.9097C17.6271 16.4492 16.3153 17.6972 14.6971 17.6972ZM14.6971 6.54749C13.0789 6.54749 11.767 5.29952 11.767 3.76007C11.767 2.22063 13.0789 0.972656 14.6971 0.972656C16.3153 0.972656 17.6271 2.22063 17.6271 3.76007C17.6271 5.29952 16.3153 6.54749 14.6971 6.54749ZM2.97691 28.8468C1.3587 28.8468 0.046875 27.5989 0.046875 26.0594C0.046875 24.52 1.3587 23.272 2.97691 23.272C4.59513 23.272 5.90695 24.52 5.90695 26.0594C5.90695 27.5989 4.59513 28.8468 2.97691 28.8468ZM2.97691 17.6972C1.3587 17.6972 0.046875 16.4492 0.046875 14.9097C0.046875 13.3703 1.3587 12.1223 2.97691 12.1223C4.59513 12.1223 5.90695 13.3703 5.90695 14.9097C5.90695 16.4492 4.59513 17.6972 2.97691 17.6972ZM2.97691 6.54749C1.3587 6.54749 0.046875 5.29952 0.046875 3.76007C0.046875 2.22063 1.3587 0.972656 2.97691 0.972656C4.59513 0.972656 5.90695 2.22063 5.90695 3.76007C5.90695 5.29952 4.59513 6.54749 2.97691 6.54749Z" fill="#373867"/>
</svg>
