<svg width="18" height="18" viewBox="0 0 18 18" fill="none" xmlns="http://www.w3.org/2000/svg">
<path d="M9.32445 16.2121C9.32445 16.2121 1.66138 13.419 1.66138 7.68365C1.66138 6.17573 2.46861 4.72959 3.90572 3.66333C5.34282 2.59707 7.29208 1.99805 9.32445 1.99805C11.3568 1.99805 13.3058 2.59707 14.743 3.66333C16.1801 4.72959 16.9875 6.17573 16.9875 7.68365C16.9875 13.419 9.32445 16.2121 9.32445 16.2121Z" stroke="#44475C" stroke-width="2" stroke-linejoin="round"/>
<path d="M9.32409 9.81498C10.9112 9.81498 12.1977 8.86041 12.1977 7.68288C12.1977 6.50535 10.9112 5.55078 9.32409 5.55078C7.73702 5.55078 6.45044 6.50535 6.45044 7.68288C6.45044 8.86041 7.73702 9.81498 9.32409 9.81498Z" stroke="#44475C" stroke-width="2" stroke-miterlimit="10"/>
</svg>
