<svg width="835" height="118" viewBox="0 0 835 118" fill="none" xmlns="http://www.w3.org/2000/svg">
<path d="M0.326704 25.9254V6.90909H89.9219V25.9254H56.5234V116H33.7251V25.9254H0.326704ZM95.7546 116V34.1818H117.754V48.4574H118.606C120.098 43.3793 122.601 39.544 126.117 36.9517C129.632 34.3239 133.681 33.0099 138.262 33.0099C139.398 33.0099 140.623 33.081 141.937 33.223C143.251 33.3651 144.405 33.5604 145.4 33.8089V53.9439C144.334 53.6243 142.86 53.3402 140.978 53.0916C139.096 52.843 137.374 52.7188 135.811 52.7188C132.473 52.7188 129.49 53.4467 126.863 54.9027C124.27 56.3232 122.211 58.3118 120.684 60.8686C119.192 63.4254 118.446 66.3729 118.446 69.7109V116H95.7546ZM178.119 117.545C172.899 117.545 168.247 116.639 164.163 114.828C160.079 112.982 156.847 110.265 154.468 106.678C152.124 103.056 150.953 98.5462 150.953 93.1484C150.953 88.603 151.787 84.7855 153.456 81.696C155.125 78.6065 157.398 76.1207 160.274 74.2386C163.151 72.3565 166.418 70.9361 170.075 69.9773C173.769 69.0185 177.639 68.3438 181.688 67.9531C186.446 67.456 190.281 66.9943 193.193 66.5682C196.105 66.1065 198.218 65.4318 199.532 64.544C200.846 63.6562 201.503 62.3423 201.503 60.6023V60.2827C201.503 56.9091 200.438 54.299 198.307 52.4524C196.212 50.6058 193.229 49.6825 189.358 49.6825C185.274 49.6825 182.025 50.5881 179.61 52.3991C177.195 54.1747 175.597 56.4119 174.816 59.1108L153.829 57.4062C154.894 52.4347 156.99 48.1378 160.115 44.5156C163.24 40.858 167.27 38.0526 172.206 36.0994C177.178 34.1108 182.931 33.1165 189.465 33.1165C194.01 33.1165 198.36 33.6491 202.515 34.7145C206.705 35.7798 210.416 37.4311 213.648 39.6683C216.915 41.9055 219.49 44.782 221.372 48.2976C223.254 51.7777 224.195 55.9503 224.195 60.8153V116H202.675V104.654H202.036C200.722 107.211 198.964 109.466 196.762 111.419C194.561 113.337 191.915 114.846 188.825 115.947C185.736 117.012 182.167 117.545 178.119 117.545ZM184.617 101.884C187.955 101.884 190.903 101.227 193.46 99.9134C196.017 98.5639 198.023 96.7528 199.479 94.4801C200.935 92.2074 201.663 89.6328 201.663 86.7564V78.0739C200.953 78.5355 199.976 78.9616 198.733 79.3523C197.526 79.7074 196.159 80.0447 194.632 80.3643C193.105 80.6484 191.578 80.9148 190.051 81.1634C188.524 81.3764 187.139 81.5717 185.896 81.7493C183.232 82.1399 180.906 82.7614 178.918 83.6136C176.929 84.4659 175.384 85.62 174.284 87.076C173.183 88.4964 172.632 90.272 172.632 92.4027C172.632 95.4922 173.751 97.8537 175.988 99.4872C178.261 101.085 181.137 101.884 184.617 101.884ZM278.767 117.598C270.386 117.598 263.177 115.822 257.14 112.271C251.139 108.685 246.523 103.713 243.291 97.3565C240.095 91 238.497 83.6847 238.497 75.4105C238.497 67.0298 240.113 59.679 243.344 53.358C246.611 47.0014 251.246 42.0476 257.247 38.4964C263.248 34.9098 270.386 33.1165 278.66 33.1165C285.798 33.1165 292.048 34.4126 297.41 37.005C302.773 39.5973 307.016 43.2372 310.141 47.9247C313.266 52.6122 314.988 58.1165 315.308 64.4375H293.895C293.291 60.3537 291.693 57.0689 289.101 54.5831C286.544 52.0618 283.188 50.8011 279.033 50.8011C275.518 50.8011 272.446 51.7599 269.818 53.6776C267.226 55.5597 265.202 58.3118 263.746 61.9339C262.29 65.5561 261.562 69.9418 261.562 75.0909C261.562 80.3111 262.272 84.75 263.692 88.4077C265.148 92.0653 267.19 94.853 269.818 96.7706C272.446 98.6882 275.518 99.647 279.033 99.647C281.626 99.647 283.952 99.1143 286.011 98.049C288.106 96.9837 289.829 95.4389 291.178 93.4148C292.563 91.3551 293.469 88.8871 293.895 86.0107H315.308C314.953 92.2607 313.248 97.7649 310.194 102.523C307.176 107.246 303.003 110.94 297.677 113.603C292.35 116.266 286.047 117.598 278.767 117.598ZM350.398 92.456L350.451 65.2365H353.754L379.961 34.1818H406.009L370.799 75.304H365.419L350.398 92.456ZM329.837 116V6.90909H352.528V116H329.837ZM380.973 116L356.896 80.3643L372.024 64.331L407.553 116H380.973ZM495.337 42.1719C495.053 39.5795 494.45 37.2891 493.526 35.3004C492.638 33.2763 491.413 31.5717 489.851 30.1868C488.288 28.7663 486.388 27.6832 484.151 26.9375C481.914 26.1918 479.322 25.8189 476.374 25.8189C470.799 25.8189 465.579 27.2038 460.714 29.9737C455.884 32.7436 451.765 36.7741 448.356 42.0653C444.947 47.321 442.621 53.7486 441.378 61.348C440.099 68.9474 440.099 75.4105 441.378 80.7372C442.692 86.0639 445.16 90.13 448.782 92.9354C452.44 95.7053 457.145 97.0902 462.898 97.0902C468.118 97.0902 472.805 96.1669 476.96 94.3203C481.115 92.4382 484.506 89.7926 487.134 86.3835C489.798 82.9744 491.502 78.9439 492.248 74.2919L496.829 74.9844H468.757L471.634 57.6193H517.283L514.94 71.3622C513.413 80.9503 510.057 89.1889 504.872 96.0781C499.688 102.967 493.224 108.259 485.483 111.952C477.777 115.645 469.325 117.491 460.128 117.491C449.901 117.491 441.289 115.237 434.293 110.727C427.333 106.181 422.379 99.7358 419.432 91.3906C416.52 83.0099 416.005 73.0668 417.887 61.5611C419.343 52.7187 421.935 44.8352 425.664 37.9105C429.428 30.9503 434.027 25.0554 439.46 20.2259C444.893 15.3963 450.913 11.7209 457.518 9.19957C464.158 6.67826 471.065 5.41761 478.239 5.41761C484.418 5.41761 490.011 6.32315 495.018 8.13423C500.06 9.9098 504.375 12.4311 507.962 15.6982C511.584 18.9652 514.318 22.8537 516.165 27.3636C518.047 31.8381 518.917 36.7741 518.775 42.1719H495.337ZM561.508 117.598C553.128 117.598 546.185 115.893 540.681 112.484C535.177 109.04 531.306 104.175 529.069 97.8892C526.867 91.5682 526.494 84.093 527.95 75.4638C529.371 67.0476 532.229 59.6612 536.526 53.3047C540.858 46.9482 546.292 41.9943 552.826 38.4432C559.36 34.892 566.64 33.1165 574.665 33.1165C580.063 33.1165 584.946 33.9865 589.314 35.7266C593.717 37.4311 597.375 40.0234 600.287 43.5035C603.199 46.9482 605.187 51.2628 606.253 56.4474C607.354 61.6321 607.336 67.7045 606.199 74.6648L605.187 80.897H536.153L538.337 66.8345H586.064C586.597 63.5675 586.384 60.6733 585.425 58.152C584.466 55.6307 582.868 53.6598 580.631 52.2393C578.394 50.7834 575.642 50.0554 572.375 50.0554C569.037 50.0554 565.912 50.8722 563 52.5057C560.088 54.1392 557.638 56.2876 555.649 58.951C553.696 61.5788 552.435 64.4375 551.867 67.527L549.363 81.483C548.653 85.7798 548.795 89.3487 549.79 92.1896C550.819 95.0305 552.595 97.1612 555.116 98.5817C557.638 99.9666 560.834 100.659 564.704 100.659C567.226 100.659 569.587 100.304 571.789 99.5938C574.026 98.8835 576.015 97.8359 577.755 96.451C579.495 95.0305 580.915 93.2727 582.016 91.1776L602.737 92.5625C600.819 97.6051 597.907 102.009 594.001 105.773C590.095 109.501 585.39 112.413 579.885 114.509C574.417 116.568 568.291 117.598 561.508 117.598ZM644.911 68.6989L637.028 116H614.389L628.026 34.1818H649.599L647.255 48.6172H648.161C650.753 43.8232 654.411 40.0412 659.134 37.2713C663.892 34.5014 669.308 33.1165 675.38 33.1165C681.062 33.1165 685.803 34.3594 689.602 36.8452C693.438 39.331 696.136 42.8643 697.699 47.4453C699.297 52.0263 699.563 57.5128 698.498 63.9048L689.762 116H667.07L675.114 67.9531C675.93 62.946 675.291 59.0398 673.196 56.2344C671.136 53.3935 667.816 51.973 663.235 51.973C660.181 51.973 657.376 52.63 654.819 53.9439C652.262 55.2578 650.114 57.1754 648.374 59.6967C646.669 62.1825 645.515 65.1832 644.911 68.6989ZM707.54 116L721.176 34.1818H743.868L730.232 116H707.54ZM734.866 23.5284C731.492 23.5284 728.705 22.4098 726.503 20.1726C724.337 17.8999 723.449 15.201 723.84 12.076C724.23 8.87997 725.757 6.18111 728.421 3.9794C731.084 1.74218 734.102 0.623572 737.476 0.623572C740.85 0.623572 743.602 1.74218 745.732 3.9794C747.863 6.18111 748.751 8.87997 748.396 12.076C748.041 15.201 746.531 17.8999 743.868 20.1726C741.24 22.4098 738.24 23.5284 734.866 23.5284ZM781.009 34.1818L791.236 62.7862L811.424 34.1818H834.702L804.18 75.0909L821.705 116H798.533L787.081 87.7152L766.52 116H743.082L774.19 75.0909L757.571 34.1818H781.009Z" fill="#373867" fill-opacity="0.15"/>
</svg>
