<svg width="134" height="154" viewBox="0 0 134 154" fill="none" xmlns="http://www.w3.org/2000/svg">
<path d="M53.7748 78.8657C55.0737 80.7414 57.1791 80.7414 58.4781 78.8657L60.8287 75.4713C62.1277 73.5956 62.1277 70.5554 60.8287 68.6797L53.4048 57.9625L60.8266 47.2423C62.1256 45.3665 62.1256 42.3263 60.8266 40.4506L58.476 37.0563C57.177 35.1805 55.0717 35.1805 53.7727 37.0563L41.6476 54.5651C40.3486 56.4409 40.3486 59.4811 41.6476 61.3568L53.7748 78.8657ZM73.729 75.4743L76.0797 78.8687C77.3786 80.7444 79.484 80.7444 80.783 78.8687L92.9081 61.3598C94.2071 59.4841 94.2071 56.4439 92.9081 54.5681L80.783 37.0593C79.484 35.1835 77.3786 35.1835 76.0797 37.0593L73.729 40.4536C72.4301 42.3293 72.4301 45.3695 73.729 47.2453L81.1508 57.9625L73.729 68.6827C72.4301 70.5584 72.4301 73.5986 73.729 75.4743ZM130.46 125.189H80.068C79.9142 131.134 77.0107 134.793 73.2635 134.793H60.6271C56.7426 134.793 53.7644 129.55 53.8163 125.189H4.09587C2.26692 125.189 0.770508 127.35 0.770508 129.991V134.793C0.770508 145.357 6.75617 154 14.072 154H120.484C127.799 154 133.785 145.357 133.785 134.793V129.991C133.785 127.35 132.289 125.189 130.46 125.189ZM120.484 14.7455C120.484 6.82239 115.994 0.339844 110.508 0.339844H24.0481C18.5612 0.339844 14.072 6.82239 14.072 14.7455V115.585H120.484V14.7455ZM107.182 96.3775H27.3734V19.5474H107.182V96.3775Z" fill="#373867"/>
</svg>
